<svg baseProfile="tiny" xmlns="http://www.w3.org/2000/svg" preserveAspectRatio="xMinYMin meet" viewBox="0 0 140 60.00000000000001" width="140" height="60.00000000000001"><path d="M10 0c-5.523 0-10 4.478-10 10 0 5.525 4.477 10 10 10s10-4.475 10-10c0-5.522-4.477-10-10-10zm5.521 10.168l-.896 1.637c-.514.521-.996 1.078-1.719 1.389-.404.07-.791.145-2.045 0l-1.389-.814-.818 2.45-1.309 2.453-.244-2.372 1.062-4.252c.192-.545-.036-2.069.083-3.189l.652-1.062 1.146-.082.49.818-.41 4.005c.492.862.982.702 1.473.98l1.146-.243 1.061-1.392.41-2.125c.396-4.69-6.586-5.85-7.932-.815-.061 2.207.072 2.243.408 2.859l-.244.736-.9-.981c-.72-2.374-.575-1.949.165-4.416 3.143-4.613 11.316-2.798 9.81 4.416z" fill="#A51414"/><g transform="translate(40)"><path d="M17.496 1.684c-.646.284-1.338.478-2.062.564.74-.445 1.311-1.148 1.576-1.986-.693.412-1.461.709-2.279.871-.655-.697-1.586-1.133-2.62-1.133-1.982 0-3.59 1.609-3.59 3.59 0 .282.031.557.094.816-2.982-.148-5.627-1.58-7.396-3.751-.309.531-.487 1.147-.487 1.803 0 1.246.635 2.344 1.598 2.986-.588-.017-1.141-.178-1.627-.448v.045c0 1.738 1.238 3.189 2.879 3.52-.299.08-.617.123-.943.123-.232 0-.457-.023-.676-.064.455 1.424 1.781 2.463 3.352 2.493-1.23.962-2.775 1.538-4.459 1.538-.289 0-.574-.02-.855-.051 1.586 1.018 3.473 1.613 5.502 1.613 6.602 0 10.211-5.469 10.211-10.211l-.012-.464c.703-.506 1.311-1.138 1.791-1.859l.003.005z" fill="#00A8DF"/></g><g transform="translate(80)"><path d="M33.712 19.575c-.896-1.145-.896-3.017.001-4.16.896-1.145.563-2.605-.739-3.248-1.304-.644-2.116-2.33-1.808-3.75s-.627-2.592-2.08-2.605c-1.452-.014-2.916-1.182-3.251-2.596s-1.687-2.064-3.001-1.447c-1.315.618-3.142.202-4.059-.924-.917-1.127-2.418-1.127-3.335 0-.917 1.126-2.743 1.543-4.059.925-1.315-.617-2.665.034-3.001 1.447s-1.797 2.581-3.251 2.595-2.389 1.188-2.08 2.606c.31 1.419-.503 3.105-1.807 3.749-1.303.643-1.635 2.104-.739 3.248s.896 3.017 0 4.161c-.896 1.144-.563 2.606.739 3.249 1.303.644 2.116 2.33 1.807 3.75-.309 1.419.627 2.592 2.08 2.605s2.916 1.182 3.252 2.594c.335 1.414 1.686 2.065 3 1.447 1.314-.617 3.141-.201 4.059.924.917 1.127 2.419 1.127 3.336 0s2.742-1.542 4.057-.924c1.315.617 2.665-.035 3.001-1.447.336-1.414 1.799-2.582 3.252-2.596 1.451-.014 2.389-1.186 2.08-2.605-.309-1.419.505-3.105 1.808-3.749 1.302-.642 1.635-2.105.738-3.249z" fill="#71B03F"/><path d="M22.987 9.585c1.018 5.038-4.55 8.471-4.55 8.471v-.006l-.236.152c-1.21.698-3.129 1.898-4.44 3.494-.538-4.617 2.598-6.955 2.806-7.178.208-.221-.014-.234-.151-.166-5.319 3.337-4.416 9.552-4.05 11.088v.01c.104.467-.339.584-.466.254-.697-1.822-2.4-8.804 1.748-12.275 1.226-1.029 2.3-1.332 3.402-1.408l1.275-.076c4.621-.207 4.662-2.36 4.662-2.36z" fill="#006838"/></g></svg>