<svg baseProfile="tiny" xmlns="http://www.w3.org/2000/svg" preserveAspectRatio="xMinYMin meet" viewBox="0 0 140 60.00000000000001" width="140" height="60"><path d="M10 0C4.477 0 0 4.478 0 10c0 5.525 4.477 10 10 10s10-4.475 10-10c0-5.522-4.477-10-10-10zm5.52 10.168l-.895 1.637c-.514.52-.996 1.078-1.72 1.39-.403.07-.79.144-2.044 0l-1.384-.815-.818 2.45-1.31 2.453-.243-2.372 1.063-4.25c.192-.542-.036-2.07.083-3.19l.65-1.06 1.147-.08.49.817-.41 4.005c.492.86.982.7 1.473.98l1.143-.243 1.06-1.393.41-2.125c.397-4.69-6.585-5.85-7.93-.818-.062 2.207.07 2.243.407 2.86l-.243.735-.9-.983c-.72-2.374-.575-1.95.165-4.416 3.144-4.614 11.317-2.8 9.81 4.415z" fill="#A51414"/><g transform="translate(40)"><path d="M17.496 1.684c-.646.284-1.338.478-2.062.564.74-.445 1.31-1.148 1.576-1.986-.693.412-1.46.71-2.28.87C14.077.437 13.146 0 12.11 0c-1.98 0-3.59 1.61-3.59 3.59 0 .282.032.557.095.816-2.982-.148-5.627-1.58-7.396-3.75-.31.53-.49 1.144-.49 1.8 0 1.247.632 2.345 1.595 2.987-.588-.017-1.14-.178-1.627-.448v.045c0 1.74 1.24 3.19 2.88 3.52-.3.08-.618.124-.944.124-.233 0-.458-.023-.677-.064.454 1.424 1.78 2.463 3.35 2.493-1.23.962-2.774 1.538-4.46 1.538-.287 0-.572-.02-.853-.05 1.587 1.02 3.474 1.617 5.503 1.617 6.604 0 10.21-5.47 10.21-10.21l-.01-.465c.704-.506 1.31-1.14 1.79-1.86l.005.006z" fill="#00A8DF"/></g><g transform="translate(80)"><path d="M33.712 19.575c-.896-1.145-.896-3.017 0-4.16.897-1.145.564-2.605-.738-3.248-1.304-.644-2.116-2.33-1.808-3.75s-.627-2.592-2.08-2.605c-1.452-.014-2.916-1.182-3.25-2.596s-1.688-2.064-3.002-1.447c-1.315.613-3.142.2-4.06-.93-.916-1.126-2.417-1.126-3.334 0-.917 1.127-2.743 1.544-4.06.926-1.314-.618-2.664.033-3 1.446S6.583 5.796 5.13 5.81 2.74 7 3.05 8.42c.31 1.42-.504 3.105-1.808 3.75-1.303.642-1.635 2.103-.74 3.247s.897 3.017 0 4.16c-.895 1.145-.562 2.607.74 3.25 1.303.644 2.116 2.33 1.807 3.75-.31 1.42.622 2.592 2.08 2.605s2.91 1.182 3.25 2.594c.332 1.414 1.683 2.065 3 1.447 1.31-.615 3.14-.2 4.06.926.913 1.124 2.42 1.124 3.332 0s2.742-1.545 4.057-.927c1.315.618 2.665-.034 3-1.446.337-1.415 1.8-2.583 3.253-2.597 1.45-.013 2.39-1.185 2.08-2.604-.31-1.42.505-3.105 1.808-3.75 1.303-.64 1.636-2.104.74-3.248z" fill="#71B03F"/><path d="M22.987 9.585c1.018 5.038-4.55 8.47-4.55 8.47v-.005l-.236.152c-1.21.698-3.124 1.898-4.44 3.494-.533-4.617 2.6-6.955 2.81-7.178.21-.22-.013-.234-.15-.166C11.1 17.69 12 23.904 12.37 25.44v.01c.102.467-.34.584-.468.254-.696-1.822-2.4-8.804 1.75-12.275 1.225-1.03 2.3-1.337 3.4-1.41l1.276-.08c4.62-.206 4.662-2.36 4.662-2.36z" fill="#006838"/></g></svg>