<svg xmlns="http://www.w3.org/2000/svg" width="20" height="20" viewBox="0 0 20 20"><path d="M10 0C4.477 0 0 4.478 0 10c0 5.525 4.477 10 10 10s10-4.475 10-10c0-5.522-4.477-10-10-10zm5.52 10.168l-.895 1.637c-.514.52-.996 1.078-1.72 1.39-.403.07-.79.144-2.044 0l-1.386-.815-.818 2.45-1.31 2.453-.243-2.372 1.063-4.25c.192-.544-.036-2.07.083-3.19l.65-1.06 1.146-.083.49.818-.41 4.005c.492.86.982.7 1.473.98l1.144-.244 1.06-1.392.41-2.125c.397-4.69-6.585-5.85-7.93-.818-.062 2.207.07 2.243.407 2.86l-.243.735-.9-.982c-.72-2.374-.575-1.95.165-4.416 3.144-4.614 11.317-2.8 9.81 4.415z" fill="#A51414"/></svg>