<svg xmlns="http://www.w3.org/2000/svg" width="20" height="20" viewBox="0 0 20 20"><path d="M10 0c-5.523 0-10 4.478-10 10 0 5.525 4.477 10 10 10s10-4.475 10-10c0-5.522-4.477-10-10-10zm5.521 10.168l-.896 1.637c-.514.521-.996 1.078-1.719 1.389-.404.07-.791.145-2.045 0l-1.389-.814-.818 2.45-1.309 2.453-.244-2.372 1.062-4.252c.192-.545-.036-2.069.083-3.189l.652-1.062 1.146-.082.49.818-.41 4.005c.492.862.982.702 1.473.98l1.146-.243 1.061-1.392.41-2.125c.396-4.69-6.586-5.85-7.932-.815-.061 2.207.072 2.243.408 2.859l-.244.736-.9-.981c-.72-2.374-.575-1.949.165-4.416 3.143-4.613 11.316-2.798 9.81 4.416z" fill="#A51414"/></svg>