<svg xmlns="http://www.w3.org/2000/svg" width="34.216" height="34.99"><path d="M33.712 19.575c-.896-1.145-.896-3.017.001-4.16.896-1.145.563-2.605-.739-3.248-1.304-.644-2.116-2.33-1.808-3.75s-.627-2.592-2.08-2.605c-1.452-.014-2.916-1.182-3.251-2.596s-1.687-2.064-3.001-1.447c-1.315.618-3.142.202-4.059-.924-.917-1.127-2.418-1.127-3.335 0-.917 1.126-2.743 1.543-4.059.925-1.315-.617-2.665.034-3.001 1.447s-1.797 2.581-3.251 2.595-2.389 1.188-2.08 2.606c.31 1.419-.503 3.105-1.807 3.749-1.303.643-1.635 2.104-.739 3.248s.896 3.017 0 4.161c-.896 1.144-.563 2.606.739 3.249 1.303.644 2.116 2.33 1.807 3.75-.309 1.419.627 2.592 2.08 2.605s2.916 1.182 3.252 2.594c.335 1.414 1.686 2.065 3 1.447 1.314-.617 3.141-.201 4.059.924.917 1.127 2.419 1.127 3.336 0s2.742-1.542 4.057-.924c1.315.617 2.665-.035 3.001-1.447.336-1.414 1.799-2.582 3.252-2.596 1.451-.014 2.389-1.186 2.08-2.605-.309-1.419.505-3.105 1.808-3.749 1.302-.642 1.635-2.105.738-3.249z" fill="#71B03F"/><path d="M22.987 9.585c1.018 5.038-4.55 8.471-4.55 8.471v-.006l-.236.152c-1.21.698-3.129 1.898-4.44 3.494-.538-4.617 2.598-6.955 2.806-7.178.208-.221-.014-.234-.151-.166-5.319 3.337-4.416 9.552-4.05 11.088v.01c.104.467-.339.584-.466.254-.697-1.822-2.4-8.804 1.748-12.275 1.226-1.029 2.3-1.332 3.402-1.408l1.275-.076c4.621-.207 4.662-2.36 4.662-2.36z" fill="#006838"/></svg>