<svg xmlns="http://www.w3.org/2000/svg" width="34.216" height="34.99"><path d="M33.712 19.575c-.896-1.145-.896-3.017 0-4.16.897-1.145.564-2.605-.738-3.248-1.304-.644-2.116-2.33-1.808-3.75s-.627-2.592-2.08-2.605c-1.452-.014-2.916-1.182-3.25-2.596s-1.688-2.064-3.002-1.447c-1.315.615-3.142.2-4.06-.927-.916-1.127-2.417-1.127-3.334 0-.917 1.126-2.743 1.543-4.06.925-1.314-.618-2.664.033-3 1.446S6.583 5.796 5.13 5.81 2.74 7 3.05 8.42c.31 1.42-.504 3.105-1.808 3.75-1.303.642-1.635 2.103-.74 3.247s.897 3.017 0 4.16c-.895 1.145-.562 2.607.74 3.25 1.303.644 2.116 2.33 1.807 3.75-.31 1.42.624 2.592 2.08 2.605s2.913 1.182 3.25 2.594c.334 1.414 1.685 2.065 3 1.447 1.313-.615 3.14-.2 4.06.926.915 1.126 2.42 1.126 3.334 0s2.742-1.543 4.057-.925c1.316.618 2.666-.034 3-1.446.338-1.415 1.8-2.583 3.254-2.597 1.45-.014 2.39-1.186 2.08-2.605-.31-1.42.505-3.105 1.808-3.75 1.302-.64 1.635-2.104.738-3.248z" fill="#71B03F"/><path d="M22.987 9.585c1.018 5.038-4.55 8.47-4.55 8.47v-.005l-.236.152c-1.21.698-3.126 1.898-4.44 3.494-.535-4.617 2.6-6.955 2.81-7.178.207-.22-.015-.234-.15-.166C11.1 17.69 12 23.904 12.37 25.44v.01c.102.467-.34.584-.468.254-.696-1.822-2.4-8.804 1.75-12.275 1.225-1.03 2.3-1.335 3.4-1.41l1.276-.077c4.62-.207 4.662-2.36 4.662-2.36z" fill="#006838"/></svg>