<svg xmlns="http://www.w3.org/2000/svg" width="17.496" height="14.213" viewBox="0 0 17.496 14.213"><path d="M17.496 1.684c-.646.284-1.338.478-2.062.564.74-.445 1.311-1.148 1.576-1.986-.693.412-1.461.709-2.279.871-.655-.697-1.586-1.133-2.62-1.133-1.982 0-3.59 1.609-3.59 3.59 0 .282.031.557.094.816-2.982-.148-5.627-1.58-7.396-3.751-.309.531-.487 1.147-.487 1.803 0 1.246.635 2.344 1.598 2.986-.588-.017-1.141-.178-1.627-.448v.045c0 1.738 1.238 3.189 2.879 3.52-.299.08-.617.123-.943.123-.232 0-.457-.023-.676-.064.455 1.424 1.781 2.463 3.352 2.493-1.23.962-2.775 1.538-4.459 1.538-.289 0-.574-.02-.855-.051 1.586 1.018 3.473 1.613 5.502 1.613 6.602 0 10.211-5.469 10.211-10.211l-.012-.464c.703-.506 1.311-1.138 1.791-1.859l.003.005z" fill="#00A8DF"/></svg>