<svg xmlns="http://www.w3.org/2000/svg" width="17.496" height="14.213" viewBox="0 0 17.496 14.213"><path d="M17.496 1.684c-.646.284-1.338.478-2.062.564.74-.445 1.31-1.148 1.576-1.986-.693.412-1.46.71-2.28.87C14.077.437 13.146 0 12.11 0c-1.98 0-3.59 1.61-3.59 3.59 0 .282.032.557.095.816-2.982-.148-5.627-1.58-7.396-3.75-.31.53-.49 1.144-.49 1.8 0 1.247.635 2.345 1.598 2.987-.588-.017-1.14-.178-1.627-.448v.045c0 1.74 1.24 3.19 2.88 3.52-.3.08-.617.124-.943.124-.233 0-.458-.023-.677-.064.455 1.424 1.78 2.463 3.352 2.493-1.23.962-2.775 1.538-4.46 1.538-.288 0-.573-.02-.854-.05 1.587 1.02 3.474 1.614 5.503 1.614 6.603 0 10.21-5.47 10.21-10.21l-.01-.465c.703-.507 1.31-1.14 1.79-1.86l.004.005z" fill="#00A8DF"/></svg>